<svg data-v-0dd9719b="" version="1.0" xmlns="http://www.w3.org/2000/svg" xmlns:xlink="http://www.w3.org/1999/xlink" width="100%" height="100%" viewBox="0 0 340.000000 250.000000" preserveAspectRatio="xMidYMid meet" color-interpolation-filters="sRGB" style="margin: auto;"> <rect data-v-0dd9719b="" x="0" y="0" width="100%" height="100%" fill="#ffffff" fill-opacity="1" class="background"></rect> <rect data-v-0dd9719b="" x="0" y="0" width="100%" height="100%" fill="url(#watermark)" fill-opacity="1" class="watermarklayer"></rect> <g data-v-0dd9719b="" fill="#0a0619" class="icon-text-wrapper icon-svg-group iconsvg" transform="translate(48.05500030517578,90.40111541748047)"><g class="iconsvg-imagesvg" transform="translate(0,0)" mask="url(#541947dc-7ce9-4da7-93db-e7211d4eca27)"><g><rect fill="#0a0619" fill-opacity="0" stroke-width="2" x="0" y="0" width="60" height="69.19776721871108" class="image-rect"></rect> <svg filter="url(#colors4753717691)" x="0" y="0" width="60" height="69.19776721871108" filtersec="colorsf8404550173" class="image-svg-svg primary" style="overflow: visible;"><svg xmlns="http://www.w3.org/2000/svg" viewBox="-0.10000999999999993 -0.30000000000000004 88.8 101.80001"><path d="M2 26.2L44.3 1.7l42.3 24.4V75L44.3 99.5 2 75.1V26.2zm0 48.9l42.3 24.4 42.3-24.4M44.3 1.7L2 26.2v48.9m74.7-31.6V31.9L44.3 13.3 12 31.9v11.6m0 14.2v11.6L44.3 88l32.3-18.7V57.7m10.1 17.4V26.2L44.3 1.7m42.4 36l-10 5.8-32.4-18.7-32.4 18.7-10-5.8m0 25.8l10-5.8 32.4 18.7 32.4-18.7 10 5.8M5.2 39.6l39.2 22.6 39.1-22.6" fill="none" stroke="#202121" stroke-width="4" stroke-linejoin="bevel" stroke-miterlimit="10"></path></svg></svg> <defs><filter id="colors4753717691"><feColorMatrix type="matrix" values="0 0 0 0 0.0390625  0 0 0 0 0.0234375  0 0 0 0 0.09765625  0 0 0 1 0" class="icon-fecolormatrix"></feColorMatrix></filter> <filter id="colorsf8404550173"><feColorMatrix type="matrix" values="0 0 0 0 0.99609375  0 0 0 0 0.99609375  0 0 0 0 0.99609375  0 0 0 1 0" class="icon-fecolormatrix"></feColorMatrix></filter> <filter id="colorsb2659464974"><feColorMatrix type="matrix" values="0 0 0 0 0  0 0 0 0 0  0 0 0 0 0  0 0 0 1 0" class="icon-fecolormatrix"></feColorMatrix></filter></defs></g><rect v-gra="id" width="72" height="81.19776916503906" transform="translate(-6, -6)" style="pointer-events:none;" fill="url(#fP6m_T6rinUtDGiTDzP_c)"></rect></g> <g transform="translate(67,19.26388454437256)"><g data-gra="path-name" fill-rule="" class="tp-name iconsvg-namesvg"><g transform="scale(1)"><g><path d="M2.9 0L24.58 0 24.58-5.62 8.69-5.62 8.69-29.82 2.9-29.82ZM28.07 0L50.13 0 50.13-5.62 33.86-5.62 33.86-12.61 48.77-12.61 48.77-17.89 33.86-17.89 33.86-24.24 50.13-24.24 50.13-29.82 28.07-29.82ZM76.33-20.02C76.33-26.71 71.6-30.24 63.98-30.24 57.12-30.24 52.52-26.83 52.52-22.23 52.52-11.37 70.58-15.29 70.58-8.26 70.58-5.84 68.06-4.26 64.49-4.26 60.35-4.26 57.93-6.39 57.93-9.84L52.09-9.84C52.09-2.77 57.08 0.43 64.61 0.43 71.51 0.43 76.33-3.02 76.33-8.26 76.33-19.08 58.1-15.8 58.1-22.15 58.1-24.7 61.21-25.6 64.02-25.6 67.89-25.6 70.58-23.43 70.58-20.02ZM79.14-14.91C79.14-5.11 86 0.43 94.6 0.43 103.42 0.43 110.23-5.11 110.23-14.91 110.23-25.17 103.42-30.24 94.6-30.24 86-30.24 79.14-24.75 79.14-14.91ZM84.93-14.91C84.93-21.55 89.15-24.83 94.6-24.83 100.22-24.83 104.48-21.55 104.48-14.91 104.48-8.26 100.22-5.03 94.6-5.03 89.15-5.03 84.93-8.26 84.93-14.91ZM114.7 0L120.28 0 120.28-19.08 120.5-19.08 128.5-3.88 132.47-3.88 141.03-19.08 141.24-19.08 141.24 0 146.99 0 146.99-29.82 141.15-29.82 130.85-10.78 130.68-10.78 120.45-29.82 114.7-29.82ZM168.07-29.82L160.79-29.82 150.1 0 156.32 0 158.19-5.54 171.14-5.54 173.14 0 179.79 0ZM159.68-10.01L164.24-23.64 164.67-23.64 169.56-10.01Z" transform="translate(-2.9000000953674316, 30.239999771118164)"></path></g> <!----> <!----> <!----> <!----> <!----> <!----> <!----></g></g> <!----></g></g><defs v-gra="od"></defs><defs v-gra="id"><filter id="5d8e0605-5350-4065-8a70-780f2fab8ff5" filterUnits="userSpaceOnUse"><feColorMatrix type="matrix" values="0 0 0 0 0.99609375  0 0 0 0 0.99609375  0 0 0 0 0.99609375  0 0 0 1 0"></feColorMatrix></filter><linearGradient x1="0" y1="1" x2="0" y2="0" id="fP6m_T6rinUtDGiTDzP_c"><stop offset="0%" stop-color="#2cf1ae"></stop><stop offset="50%" stop-color="#1eaafd"></stop><stop offset="100%" stop-color="#dd3ffc"></stop></linearGradient><filter id="42443b3f1de60f6b6fd3b6a9844b4764" filterUnits="objectBoundingBox"><feColorMatrix type="matrix" values="0 0 0 0 0.99609375  0 0 0 0 0.99609375  0 0 0 0 0.99609375  0 0 0 1 0"></feColorMatrix></filter></defs><mask v-gra="im" id="541947dc-7ce9-4da7-93db-e7211d4eca27"><g class="iconsvg-imagesvg" filter="url(#5d8e0605-5350-4065-8a70-780f2fab8ff5)"><g><rect fill="#0a0619" fill-opacity="0" stroke-width="2" x="0" y="0" width="60" height="69.19776721871108" class="image-rect"></rect> <svg x="0" y="0" width="60" height="69.19776721871108" filtersec="colorsf8404550173" class="image-svg-svg primary" style="overflow: visible;"><svg xmlns="http://www.w3.org/2000/svg" viewBox="-0.10000999999999993 -0.30000000000000004 88.8 101.80001"><path d="M2 26.2L44.3 1.7l42.3 24.4V75L44.3 99.5 2 75.1V26.2zm0 48.9l42.3 24.4 42.3-24.4M44.3 1.7L2 26.2v48.9m74.7-31.6V31.9L44.3 13.3 12 31.9v11.6m0 14.2v11.6L44.3 88l32.3-18.7V57.7m10.1 17.4V26.2L44.3 1.7m42.4 36l-10 5.8-32.4-18.7-32.4 18.7-10-5.8m0 25.8l10-5.8 32.4 18.7 32.4-18.7 10 5.8M5.2 39.6l39.2 22.6 39.1-22.6" fill="none" stroke="#202121" stroke-width="4" stroke-linejoin="bevel" stroke-miterlimit="10"></path></svg></svg> <defs><filter id="colors4753717691"><feColorMatrix type="matrix" values="0 0 0 0 0.0390625  0 0 0 0 0.0234375  0 0 0 0 0.09765625  0 0 0 1 0" class="icon-fecolormatrix"></feColorMatrix></filter> <filter id="colorsf8404550173"><feColorMatrix type="matrix" values="0 0 0 0 0.99609375  0 0 0 0 0.99609375  0 0 0 0 0.99609375  0 0 0 1 0" class="icon-fecolormatrix"></feColorMatrix></filter> <filter id="colorsb2659464974"><feColorMatrix type="matrix" values="0 0 0 0 0  0 0 0 0 0  0 0 0 0 0  0 0 0 1 0" class="icon-fecolormatrix"></feColorMatrix></filter></defs></g></g></mask></svg>